<?xml version="1.0" encoding="iso-8859-1"?>
<!-- Generator: Adobe Illustrator 19.0.0, SVG Export Plug-In . SVG Version: 6.00 Build 0)  -->
<svg version="1.1" id="Layer_1" xmlns="http://www.w3.org/2000/svg" xmlns:xlink="http://www.w3.org/1999/xlink" x="0px" y="0px"
	 viewBox="0 0 473.931 473.931" style="enable-background:new 0 0 473.931 473.931;" xml:space="preserve">
<circle style="fill:#324a5e;" cx="236.966" cy="236.966" r="236.966"/>
<path style="fill:#F3F4F5;" d="M330.091,380.066c0,21.758-7.798,29.549-29.552,29.549H182.325c-21.762,0-29.552-7.79-29.552-29.549
	V104.242c0-21.758,7.79-29.549,29.552-29.549h118.21c21.755,0,29.552,7.79,29.552,29.549v275.824H330.091z"/>
<linearGradient id="SVGID_1_" gradientUnits="userSpaceOnUse" x1="14.5485" y1="563.1992" x2="14.5485" y2="491.6792" gradientTransform="matrix(3.7418 0 0 -3.7418 186.5716 2214.0598)">
	<stop  offset="0" style="stop-color:#5978BA"/>
	<stop  offset="0.703" style="stop-color:#4E9DB8"/>
	<stop  offset="1" style="stop-color:#379CC9"/>
</linearGradient>
<rect x="160.971" y="106.704" style="fill:url(#SVGID_1_);" width="160.076" height="267.611"/>
<path style="fill:#6CC077;" d="M179.395,217.265h124.466c3.053,0,5.519-2.47,5.519-5.515v-20.015l-10.305-10.305
	c0,0-5.852-7.547-11.293-7.24c-4.905,0.281-10.612,6.41-11.708,7.622l-6.855-6.847c0,0-6.855-8.842-13.235-8.49
	c-6.38,0.367-13.994,9.25-13.994,9.25l-2.084,2.088l-12.898-12.902c0,0-8.434-10.866-16.277-10.425
	c-7.828,0.442-17.197,11.353-17.197,11.353l-19.667,19.667v26.252C173.872,214.796,176.349,217.265,179.395,217.265z"/>
<path style="fill:#DBF0F5;" d="M210.732,154.482c7.843-0.442,16.277,10.425,16.277,10.425l12.898,12.902l2.084-2.088
	c0,0,7.615-8.883,13.994-9.25c6.38-0.355,13.235,8.49,13.235,8.49l6.855,6.855c1.096-1.212,6.803-7.341,11.708-7.622
	c5.437-0.307,11.293,7.24,11.293,7.24l10.305,10.305v-51.917c0-3.05-2.462-5.527-5.519-5.527H179.395
	c-3.046,0-5.527,2.473-5.527,5.527v45.679l19.667-19.667C193.535,165.835,202.904,154.924,210.732,154.482z"/>
<path style="fill:#B8B9BA;" d="M259.136,85.907c0,1.246-1.463,2.245-3.259,2.245h-28.883c-1.804,0-3.267-0.999-3.267-2.245l0,0
	c0-1.235,1.463-2.241,3.267-2.241h28.883C257.673,83.666,259.136,84.672,259.136,85.907L259.136,85.907z"/>
<g>
	<circle style="fill:#FFFFFF;" cx="241.381" cy="312.212" r="4.513"/>
	<circle style="fill:#FFFFFF;" cx="257.796" cy="312.212" r="2.874"/>
	<circle style="fill:#FFFFFF;" cx="270.941" cy="312.212" r="2.874"/>
	<circle style="fill:#FFFFFF;" cx="211.825" cy="312.212" r="2.877"/>
	<circle style="fill:#FFFFFF;" cx="224.955" cy="312.212" r="2.874"/>
</g>
<rect x="160.971" y="106.704" style="opacity:0.5;fill:#202121;enable-background:new    ;" width="160.005" height="13.414"/>
<g>
	<circle style="fill:#FFFFFF;" cx="297.058" cy="113.001" r="3.416"/>
	<circle style="fill:#FFFFFF;" cx="169.202" cy="113.001" r="3.416"/>
	<circle style="fill:#FFFFFF;" cx="312.624" cy="113.001" r="3.416"/>
</g>
<path style="fill:#B5DBAF;" d="M200.195,287.648c0,3.046-2.47,5.515-5.519,5.515h-16.108c-3.053,0-5.527-2.466-5.527-5.515v-16.112
	c0-3.053,2.47-5.527,5.527-5.527h16.108c3.046,0,5.519,2.47,5.519,5.527V287.648z"/>
<path style="fill:#F6A2A3;" d="M236.726,287.648c0,3.046-2.477,5.515-5.527,5.515h-16.101c-3.053,0-5.527-2.466-5.527-5.515v-16.112
	c0-3.053,2.47-5.527,5.527-5.527H231.2c3.046,0,5.527,2.47,5.527,5.527V287.648z"/>
<path style="fill:#67B8CB;" d="M273.253,287.648c0,3.046-2.477,5.515-5.519,5.515h-16.108c-3.046,0-5.534-2.466-5.534-5.515v-16.112
	c0-3.053,2.485-5.527,5.534-5.527h16.108c3.042,0,5.519,2.47,5.519,5.527V287.648z"/>
<path style="fill:#F5E554;" d="M309.78,287.648c0,3.046-2.47,5.515-5.519,5.515h-16.108c-3.053,0-5.519-2.466-5.519-5.515v-16.112
	c0-3.053,2.462-5.527,5.519-5.527h16.108c3.046,0,5.519,2.47,5.519,5.527V287.648z"/>
<path style="fill:none;stroke:#67B8CB;stroke-width:0.5;stroke-miterlimit:10;" d="M309.372,241.68c0,3.042-2.462,5.512-5.519,5.512
	H179.387c-3.046,0-5.527-2.466-5.527-5.512v-6.264c0-3.05,2.477-5.523,5.527-5.523h124.466c3.053,0,5.519,2.47,5.519,5.523V241.68z"
	/>
<g>
	<circle style="fill:#DBF0F5;" cx="296.497" cy="236.816" r="4.101"/>
	<path style="fill:#DBF0F5;" d="M303.924,244.281c-0.322,0.318-0.935,0.228-1.366-0.21l-4.61-4.61
		c-0.43-0.427-0.528-1.036-0.206-1.358l0.408-0.408c0.322-0.326,0.935-0.228,1.366,0.21l4.61,4.602
		c0.43,0.434,0.528,1.044,0.198,1.366L303.924,244.281z"/>
</g>
<path style="fill:#67B8CB;" d="M193.924,349.305c0,2.477-2.009,4.49-4.494,4.49h-13.119c-2.485,0-4.501-2.013-4.501-4.49v-13.126
	c0-2.481,2.017-4.494,4.501-4.494h13.119c2.485,0,4.494,2.013,4.494,4.494V349.305z"/>
<path style="fill:#F5E554;" d="M223.682,349.305c0,2.477-2.024,4.49-4.501,4.49h-13.119c-2.485,0-4.494-2.013-4.494-4.49v-13.126
	c0-2.481,2.009-4.494,4.494-4.494h13.119c2.477,0,4.501,2.013,4.501,4.494V349.305z"/>
<path style="fill:#B5DBAF;" d="M253.426,349.305c0,2.477-2.017,4.49-4.494,4.49h-13.119c-2.485,0-4.501-2.013-4.501-4.49v-13.126
	c0-2.481,2.017-4.494,4.501-4.494h13.119c2.477,0,4.494,2.013,4.494,4.494V349.305z"/>
<path style="fill:#D3D4E3;" d="M283.18,349.305c0,2.477-2.017,4.49-4.494,4.49h-13.119c-2.492,0-4.494-2.013-4.494-4.49v-13.126
	c0-2.481,2.002-4.494,4.494-4.494h13.119c2.477,0,4.494,2.013,4.494,4.494V349.305z"/>
<path style="fill:#F6A2A3;" d="M312.733,349.305c0,2.477-2.017,4.49-4.494,4.49H295.12c-2.492,0-4.501-2.013-4.501-4.49v-13.126
	c0-2.481,2.009-4.494,4.501-4.494h13.119c2.477,0,4.494,2.013,4.494,4.494V349.305z"/>
<path style="fill:none;stroke:#B8B9BA;stroke-width:0.5;stroke-miterlimit:10;" d="M259.427,393.708
	c0,3.338-2.032,6.043-4.539,6.043h-26.63c-2.499,0-4.531-2.709-4.531-6.043v-4.288c0-3.341,2.032-6.043,4.531-6.043h26.63
	c2.507,0,4.539,2.705,4.539,6.043V393.708z"/>
<g>
	<circle style="fill:#B8B9BA;" cx="263.944" cy="86.06" r="2.462"/>
	<circle style="fill:#B8B9BA;" cx="270.529" cy="86.06" r="2.462"/>
	<circle style="fill:#B8B9BA;" cx="294.102" cy="87.097" r="3.311"/>
</g>
<g>
</g>
<g>
</g>
<g>
</g>
<g>
</g>
<g>
</g>
<g>
</g>
<g>
</g>
<g>
</g>
<g>
</g>
<g>
</g>
<g>
</g>
<g>
</g>
<g>
</g>
<g>
</g>
<g>
</g>
</svg>
