<?xml version="1.0" ?><svg viewBox="0 0 100 100" xmlns="http://www.w3.org/2000/svg"><title/><circle cx="50" cy="50" fill="#324a5e" r="49.5"/><path d="M53.0061,88.12861a3.082,3.082,0,0,1-6.00826,0,4.50837,4.50837,0,0,0,.535.02742h4.93826A4.51058,4.51058,0,0,0,53.0061,88.12861Z" fill="#2b687f"/><path d="M58.12955,71.647,57.5809,82.00376c0,3.203-1.63238,5.84362-4.57481,6.12485a4.50837,4.50837,0,0,1-.535.02742H47.53284a4.50837,4.50837,0,0,1-.535-.02742c-2.94243-.28123-4.57472-2.92183-4.57472-6.12485L41.87437,71.647Z" fill="#10556b"/><path d="M42.20994,76.34634a1.46387,1.46387,0,0,1-.15294-2.91959l15.58208-1.651a1.464,1.464,0,1,1,.30876,2.91172l-15.58208,1.651C42.31285,76.34348,42.26139,76.34634,42.20994,76.34634Z" fill="#2b687f"/><path d="M42.5873,81.44878a1.46386,1.46386,0,0,1-.15294-2.91958L57.26171,76.959a1.464,1.464,0,1,1,.30875,2.91172L42.74311,81.44092C42.69022,81.44592,42.63876,81.44878,42.5873,81.44878Z" fill="#2b687f"/><path d="M43.41137,86.50479a1.46386,1.46386,0,0,1-.153-2.91958l13.18-1.39583a1.464,1.464,0,0,1,.30876,2.91172l-13.18,1.39583C43.51428,86.50194,43.46283,86.50479,43.41137,86.50479Z" fill="#2b687f"/><path d="M69.67286,40.582a19.56531,19.56531,0,0,1-3.80663,11.62558,21.13389,21.13389,0,0,0-4.26611,12.48285v4.12893a3.26382,3.26382,0,0,1-3.26477,3.26483H41.66858a3.26387,3.26387,0,0,1-3.26477-3.26483V64.231a19.685,19.685,0,0,0-4.1221-11.82453A19.67372,19.67372,0,1,1,69.67286,40.582Z" fill="#ffab80"/><path d="M25.64312,42.3829H19.9052a1.4052,1.4052,0,0,1,0-2.81041h5.73792a1.4052,1.4052,0,0,1,0,2.81041Z" fill="#ffab80"/><path d="M28.905,30.20446a1.39575,1.39575,0,0,1-.70123-.18846l-4.96945-2.869a1.405,1.405,0,0,1,1.4052-2.43349l4.96945,2.869a1.40516,1.40516,0,0,1-.704,2.622Z" fill="#ffab80"/><path d="M37.82293,21.28928a1.40359,1.40359,0,0,1-1.21812-.7026l-2.869-4.96853a1.405,1.405,0,0,1,2.43349-1.4052l2.869,4.96853a1.4053,1.4053,0,0,1-1.21537,2.10781Z" fill="#ffab80"/><path d="M50,18.026a1.40527,1.40527,0,0,1-1.4052-1.4052V10.8829a1.4052,1.4052,0,1,1,2.81041,0v5.73792A1.40527,1.40527,0,0,1,50,18.026Z" fill="#ffab80"/><path d="M62.17752,21.28928a1.4053,1.4053,0,0,1-1.21583-2.10781l2.869-4.96853a1.405,1.405,0,1,1,2.43349,1.4052l-2.869,4.96853A1.40341,1.40341,0,0,1,62.17752,21.28928Z" fill="#ffab80"/><path d="M71.09453,30.20446a1.40516,1.40516,0,0,1-.70352-2.622l4.96945-2.869a1.405,1.405,0,0,1,1.4052,2.43349l-4.96945,2.869A1.39617,1.39617,0,0,1,71.09453,30.20446Z" fill="#ffab80"/><path d="M80.0948,42.3829H74.35688a1.4052,1.4052,0,0,1,0-2.81041H80.0948a1.4052,1.4052,0,0,1,0,2.81041Z" fill="#ffab80"/><path d="M76.06215,57.4303a1.39617,1.39617,0,0,1-.70169-.18846l-4.96945-2.869a1.405,1.405,0,0,1,1.4052-2.43349l4.96945,2.869a1.40516,1.40516,0,0,1-.70352,2.622Z" fill="#ffab80"/><path d="M23.93831,57.4303a1.40516,1.40516,0,0,1-.704-2.622l4.96945-2.869a1.405,1.405,0,0,1,1.4052,2.43349l-4.96945,2.869A1.39575,1.39575,0,0,1,23.93831,57.4303Z" fill="#ffab80"/><path d="M59.82811,29.28451a1.99284,1.99284,0,0,0-3.2446,2.01945A15.64013,15.64013,0,0,1,55.16968,42.321C51.63031,49.22423,44.2391,52.502,38.66088,49.642A9.29647,9.29647,0,0,1,37.648,49.0376c.12539.18268.23992.37131.37394.54914a24.241,24.241,0,0,1,5.066,14.644v1.17954a1.9904,1.9904,0,0,0,1.9904,1.9904h9.84756a1.9904,1.9904,0,0,0,1.9904-1.9904v-.71937A25.71144,25.71144,0,0,1,62.09153,49.434a14.95653,14.95653,0,0,0-2.26342-20.14944Z" fill="#e29167"/></svg>