<?xml version="1.0" encoding="iso-8859-1"?>
<!-- Generator: Adobe Illustrator 19.0.0, SVG Export Plug-In . SVG Version: 6.00 Build 0)  -->
<svg version="1.1" id="Capa_1" xmlns="http://www.w3.org/2000/svg" xmlns:xlink="http://www.w3.org/1999/xlink" x="0px" y="0px"
	 viewBox="0 0 512 512" style="enable-background:new 0 0 512 512;" xml:space="preserve">
<path style="fill:#324a5e;" d="M437.02,74.98C388.667,26.629,324.38,0,256,0S123.333,26.629,74.98,74.98
	C26.629,123.333,0,187.62,0,256s26.629,132.667,74.98,181.02C123.333,485.371,187.62,512,256,512s132.667-26.629,181.02-74.98
	C485.371,388.667,512,324.38,512,256S485.371,123.333,437.02,74.98z"/>
<path style="fill:#324a5e;" d="M256,0C187.62,0,123.333,26.629,74.98,74.98C26.629,123.333,0,187.62,0,256
	s26.629,132.667,74.98,181.02C123.333,485.371,187.62,512,256,512V0z"/>
<path style="fill:#e2b073;" d="M307.582,110.38h-36.583v-0.694c0-8.284-6.716-15-15-15s-15,6.716-15,15v206.351
	c-10.56-5.708-22.918-8.783-35.781-8.783c-16.918,0-32.969,5.308-45.194,14.945c-13.083,10.313-20.587,24.925-20.587,40.086
	s7.504,29.772,20.587,40.086c12.225,9.637,28.275,14.944,45.194,14.944c16.918,0,32.968-5.308,45.194-14.944
	c13.083-10.313,20.587-24.925,20.587-40.086c0-0.261-0.02-0.521-0.024-0.781c0.005-0.16,0.024-0.316,0.024-0.477V180.661h36.583
	c21.044,0,38.164,17.12,38.164,38.164v7.332c0,10.644-4.274,20.522-12.035,27.816c-6.037,5.674-6.332,15.166-0.658,21.203
	c2.953,3.142,6.938,4.728,10.934,4.728c3.683,0,7.375-1.349,10.27-4.069c13.657-12.835,21.49-30.942,21.49-49.678v-47.613
	C375.746,140.958,345.168,110.38,307.582,110.38z"/>
<path style="fill:#e2b073;" d="M255.998,94.686c-8.284,0-15,6.716-15,15v206.351c-10.56-5.708-22.918-8.783-35.781-8.783
	c-16.918,0-32.969,5.308-45.194,14.945c-13.083,10.313-20.587,24.925-20.587,40.086s7.504,29.772,20.587,40.086
	c12.225,9.637,28.275,14.944,45.194,14.944c16.918,0,32.968-5.308,45.194-14.944c1.635-1.289,3.184-2.646,4.641-4.062l0.946-0.941
	L255.998,94.686L255.998,94.686z"/>
<g>
</g>
<g>
</g>
<g>
</g>
<g>
</g>
<g>
</g>
<g>
</g>
<g>
</g>
<g>
</g>
<g>
</g>
<g>
</g>
<g>
</g>
<g>
</g>
<g>
</g>
<g>
</g>
<g>
</g>
</svg>
